<svg xmlns="http://www.w3.org/2000/svg" viewBox="0 0 200 60" width="200" height="60">
  <text x="10" y="30" font-family="Arial, sans-serif" font-size="18" font-weight="bold" fill="#1a1a1a">amazon</text>
  <text x="10" y="50" font-family="Arial, sans-serif" font-size="14" fill="#1a1a1a">studios</text>
  <path d="M10 35 Q50 45 90 3  <path d="M10 35 Q50 45 90 3  <path d="M10 35 Q50 45 90 3  <path d="M10 35 Q50 45 90 3  <path d="M10 35 Q50 45 90 3  <path d="M10 35 Q50 45 9g/2  <path d="M10 35"0  <path d="M10 35 Q50 45 90 3  <path d="M10 35 Q50 45 90 3  <path d="M10 35 Q50 45 90 3  <path d="M10 35 Q50 45 90 3  <path d="M10 35 Q50 45 90 3  <path d="M10 35 Q50 45 9g/2  <path d="M10 35"0  <path d="M10 35 Q50 45 90 3  <path d="M10 35 Q50 45 90 3  <path d="M10 35 Q50 45 90 3  <path d="M10 35 Q50 45 90 3  <path d="M10 35 Q50 45 90 3  <path d="M10 35 Q50 45 9g/2  <path d="M10 35"0  <path d="M10 35 Q50 45 90 3  <path d="M10 35 Q50 45 90 3  <path d="M10 35 Q50 45 90ze=  <path d="M10 35 Qold" fill="#E50914">TELECINE</text>
</svg>
